<svg width="329" height="77" viewBox="0 0 329 77" fill="none" xmlns="http://www.w3.org/2000/svg">
<path d="M29.2955 28.8409C29.1136 27.0076 28.3333 25.5833 26.9545 24.5682C25.5758 23.553 23.7045 23.0455 21.3409 23.0455C19.7348 23.0455 18.3788 23.2727 17.2727 23.7273C16.1667 24.1667 15.3182 24.7803 14.7273 25.5682C14.1515 26.3561 13.8636 27.25 13.8636 28.25C13.8333 29.0833 14.0076 29.8106 14.3864 30.4318C14.7803 31.053 15.3182 31.5909 16 32.0455C16.6818 32.4848 17.4697 32.8712 18.3636 33.2045C19.2576 33.5227 20.2121 33.7955 21.2273 34.0227L25.4091 35.0227C27.4394 35.4773 29.303 36.0833 31 36.8409C32.697 37.5985 34.1667 38.5303 35.4091 39.6364C36.6515 40.7424 37.6136 42.0455 38.2955 43.5455C38.9924 45.0455 39.3485 46.7652 39.3636 48.7045C39.3485 51.553 38.6212 54.0227 37.1818 56.1136C35.7576 58.1894 33.697 59.803 31 60.9545C28.3182 62.0909 25.0833 62.6591 21.2955 62.6591C17.5379 62.6591 14.2652 62.0833 11.4773 60.9318C8.70455 59.7803 6.53788 58.0758 4.97727 55.8182C3.43182 53.5455 2.62121 50.7348 2.54545 47.3864H12.0682C12.1742 48.947 12.6212 50.25 13.4091 51.2955C14.2121 52.3258 15.2803 53.1061 16.6136 53.6364C17.9621 54.1515 19.4848 54.4091 21.1818 54.4091C22.8485 54.4091 24.2955 54.1667 25.5227 53.6818C26.7652 53.197 27.7273 52.5227 28.4091 51.6591C29.0909 50.7955 29.4318 49.803 29.4318 48.6818C29.4318 47.6364 29.1212 46.7576 28.5 46.0455C27.8939 45.3333 27 44.7273 25.8182 44.2273C24.6515 43.7273 23.2197 43.2727 21.5227 42.8636L16.4545 41.5909C12.5303 40.6364 9.43182 39.1439 7.15909 37.1136C4.88636 35.0833 3.75758 32.3485 3.77273 28.9091C3.75758 26.0909 4.50758 23.6288 6.02273 21.5227C7.55303 19.4167 9.65152 17.7727 12.3182 16.5909C14.9848 15.4091 18.0152 14.8182 21.4091 14.8182C24.8636 14.8182 27.8788 15.4091 30.4545 16.5909C33.0455 17.7727 35.0606 19.4167 36.5 21.5227C37.9394 23.6288 38.6818 26.0682 38.7273 28.8409H29.2955ZM45.983 62V15.4545H64.3466C67.8617 15.4545 70.8617 16.0833 73.3466 17.3409C75.8466 18.5833 77.7481 20.3485 79.0511 22.6364C80.3693 24.9091 81.0284 27.5833 81.0284 30.6591C81.0284 33.75 80.3617 36.4091 79.0284 38.6364C77.6951 40.8485 75.7633 42.5455 73.233 43.7273C70.7178 44.9091 67.6723 45.5 64.0966 45.5H51.8011V37.5909H62.5057C64.3845 37.5909 65.9451 37.3333 67.1875 36.8182C68.4299 36.303 69.3542 35.5303 69.9602 34.5C70.5814 33.4697 70.892 32.1894 70.892 30.6591C70.892 29.1136 70.5814 27.8106 69.9602 26.75C69.3542 25.6894 68.4223 24.8864 67.1648 24.3409C65.9223 23.7803 64.3542 23.5 62.4602 23.5H55.8239V62H45.983ZM71.1193 40.8182L82.6875 62H71.8239L60.5057 40.8182H71.1193Z" fill="#17134F"/>
<path d="M111.545 38H108.727C108.561 37.1894 108.269 36.4773 107.852 35.8636C107.443 35.25 106.943 34.7348 106.352 34.3182C105.769 33.8939 105.121 33.5758 104.409 33.3636C103.697 33.1515 102.955 33.0455 102.182 33.0455C100.773 33.0455 99.4962 33.4015 98.3523 34.1136C97.2159 34.8258 96.3106 35.875 95.6364 37.2614C94.9697 38.6477 94.6364 40.3485 94.6364 42.3636C94.6364 44.3788 94.9697 46.0795 95.6364 47.4659C96.3106 48.8523 97.2159 49.9015 98.3523 50.6136C99.4962 51.3258 100.773 51.6818 102.182 51.6818C102.955 51.6818 103.697 51.5758 104.409 51.3636C105.121 51.1515 105.769 50.8371 106.352 50.4205C106.943 49.9962 107.443 49.4773 107.852 48.8636C108.269 48.2424 108.561 47.5303 108.727 46.7273H111.545C111.333 47.9167 110.947 48.9811 110.386 49.9205C109.826 50.8598 109.129 51.6591 108.295 52.3182C107.462 52.9697 106.527 53.4659 105.489 53.8068C104.458 54.1477 103.356 54.3182 102.182 54.3182C100.197 54.3182 98.4318 53.8333 96.8864 52.8636C95.3409 51.8939 94.125 50.5152 93.2386 48.7273C92.3523 46.9394 91.9091 44.8182 91.9091 42.3636C91.9091 39.9091 92.3523 37.7879 93.2386 36C94.125 34.2121 95.3409 32.8333 96.8864 31.8636C98.4318 30.8939 100.197 30.4091 102.182 30.4091C103.356 30.4091 104.458 30.5795 105.489 30.9205C106.527 31.2614 107.462 31.7614 108.295 32.4205C109.129 33.072 109.826 33.8674 110.386 34.8068C110.947 35.7386 111.333 36.803 111.545 38ZM135.736 42.3636C135.736 44.8182 135.293 46.9394 134.406 48.7273C133.52 50.5152 132.304 51.8939 130.759 52.8636C129.213 53.8333 127.448 54.3182 125.463 54.3182C123.478 54.3182 121.713 53.8333 120.168 52.8636C118.622 51.8939 117.406 50.5152 116.52 48.7273C115.634 46.9394 115.19 44.8182 115.19 42.3636C115.19 39.9091 115.634 37.7879 116.52 36C117.406 34.2121 118.622 32.8333 120.168 31.8636C121.713 30.8939 123.478 30.4091 125.463 30.4091C127.448 30.4091 129.213 30.8939 130.759 31.8636C132.304 32.8333 133.52 34.2121 134.406 36C135.293 37.7879 135.736 39.9091 135.736 42.3636ZM133.009 42.3636C133.009 40.3485 132.671 38.6477 131.997 37.2614C131.33 35.875 130.425 34.8258 129.281 34.1136C128.145 33.4015 126.872 33.0455 125.463 33.0455C124.054 33.0455 122.777 33.4015 121.634 34.1136C120.497 34.8258 119.592 35.875 118.918 37.2614C118.251 38.6477 117.918 40.3485 117.918 42.3636C117.918 44.3788 118.251 46.0795 118.918 47.4659C119.592 48.8523 120.497 49.9015 121.634 50.6136C122.777 51.3258 124.054 51.6818 125.463 51.6818C126.872 51.6818 128.145 51.3258 129.281 50.6136C130.425 49.9015 131.33 48.8523 131.997 47.4659C132.671 46.0795 133.009 44.3788 133.009 42.3636ZM158.929 30.7273V54H156.202L143.52 35.7273H143.293V54H140.474V30.7273H143.202L155.929 49.0455H156.156V30.7273H158.929ZM177.295 36.5455C177.159 35.3939 176.606 34.5 175.636 33.8636C174.667 33.2273 173.477 32.9091 172.068 32.9091C171.038 32.9091 170.136 33.0758 169.364 33.4091C168.598 33.7424 168 34.2008 167.568 34.7841C167.144 35.3674 166.932 36.0303 166.932 36.7727C166.932 37.3939 167.08 37.928 167.375 38.375C167.678 38.8144 168.064 39.1818 168.534 39.4773C169.004 39.7652 169.496 40.0038 170.011 40.1932C170.527 40.375 171 40.5227 171.432 40.6364L173.795 41.2727C174.402 41.4318 175.076 41.6515 175.818 41.9318C176.568 42.2121 177.284 42.5947 177.966 43.0795C178.655 43.5568 179.223 44.1705 179.67 44.9205C180.117 45.6705 180.341 46.5909 180.341 47.6818C180.341 48.9394 180.011 50.0758 179.352 51.0909C178.701 52.1061 177.746 52.9129 176.489 53.5114C175.239 54.1098 173.72 54.4091 171.932 54.4091C170.265 54.4091 168.822 54.1402 167.602 53.6023C166.39 53.0644 165.436 52.3144 164.739 51.3523C164.049 50.3902 163.659 49.2727 163.568 48H166.477C166.553 48.8788 166.848 49.6061 167.364 50.1818C167.886 50.75 168.545 51.1742 169.341 51.4545C170.144 51.7273 171.008 51.8636 171.932 51.8636C173.008 51.8636 173.973 51.6894 174.83 51.3409C175.686 50.9848 176.364 50.4924 176.864 49.8636C177.364 49.2273 177.614 48.4848 177.614 47.6364C177.614 46.8636 177.398 46.2348 176.966 45.75C176.534 45.2652 175.966 44.8712 175.261 44.5682C174.557 44.2652 173.795 44 172.977 43.7727L170.114 42.9545C168.295 42.4318 166.856 41.6856 165.795 40.7159C164.735 39.7462 164.205 38.4773 164.205 36.9091C164.205 35.6061 164.557 34.4697 165.261 33.5C165.973 32.5227 166.928 31.7652 168.125 31.2273C169.33 30.6818 170.674 30.4091 172.159 30.4091C173.659 30.4091 174.992 30.678 176.159 31.2159C177.326 31.7462 178.25 32.4735 178.932 33.3977C179.621 34.322 179.985 35.3712 180.023 36.5455H177.295ZM200.247 30.7273H203.065V46.1364C203.065 47.7273 202.69 49.1477 201.94 50.3977C201.198 51.6402 200.149 52.6212 198.793 53.3409C197.437 54.053 195.846 54.4091 194.02 54.4091C192.194 54.4091 190.603 54.053 189.247 53.3409C187.891 52.6212 186.838 51.6402 186.088 50.3977C185.346 49.1477 184.974 47.7273 184.974 46.1364V30.7273H187.793V45.9091C187.793 47.0455 188.043 48.0568 188.543 48.9432C189.043 49.822 189.755 50.5152 190.679 51.0227C191.611 51.5227 192.724 51.7727 194.02 51.7727C195.315 51.7727 196.429 51.5227 197.361 51.0227C198.293 50.5152 199.005 49.822 199.497 48.9432C199.997 48.0568 200.247 47.0455 200.247 45.9091V30.7273ZM208.693 54V30.7273H211.511V51.5H222.33V54H208.693ZM222.327 33.2273V30.7273H239.781V33.2273H232.463V54H229.645V33.2273H222.327ZM262.798 42.3636C262.798 44.8182 262.355 46.9394 261.469 48.7273C260.582 50.5152 259.366 51.8939 257.821 52.8636C256.276 53.8333 254.51 54.3182 252.526 54.3182C250.541 54.3182 248.776 53.8333 247.23 52.8636C245.685 51.8939 244.469 50.5152 243.582 48.7273C242.696 46.9394 242.253 44.8182 242.253 42.3636C242.253 39.9091 242.696 37.7879 243.582 36C244.469 34.2121 245.685 32.8333 247.23 31.8636C248.776 30.8939 250.541 30.4091 252.526 30.4091C254.51 30.4091 256.276 30.8939 257.821 31.8636C259.366 32.8333 260.582 34.2121 261.469 36C262.355 37.7879 262.798 39.9091 262.798 42.3636ZM260.071 42.3636C260.071 40.3485 259.734 38.6477 259.06 37.2614C258.393 35.875 257.488 34.8258 256.344 34.1136C255.207 33.4015 253.935 33.0455 252.526 33.0455C251.116 33.0455 249.84 33.4015 248.696 34.1136C247.56 34.8258 246.654 35.875 245.98 37.2614C245.313 38.6477 244.98 40.3485 244.98 42.3636C244.98 44.3788 245.313 46.0795 245.98 47.4659C246.654 48.8523 247.56 49.9015 248.696 50.6136C249.84 51.3258 251.116 51.6818 252.526 51.6818C253.935 51.6818 255.207 51.3258 256.344 50.6136C257.488 49.9015 258.393 48.8523 259.06 47.4659C259.734 46.0795 260.071 44.3788 260.071 42.3636ZM267.537 54V30.7273H275.401C277.219 30.7273 278.711 31.0379 279.878 31.6591C281.045 32.2727 281.908 33.1174 282.469 34.1932C283.029 35.2689 283.31 36.4924 283.31 37.8636C283.31 39.2348 283.029 40.4508 282.469 41.5114C281.908 42.572 281.048 43.4053 279.889 44.0114C278.73 44.6098 277.249 44.9091 275.446 44.9091H269.082V42.3636H275.355C276.598 42.3636 277.598 42.1818 278.355 41.8182C279.12 41.4545 279.673 40.9394 280.014 40.2727C280.363 39.5985 280.537 38.7955 280.537 37.8636C280.537 36.9318 280.363 36.1174 280.014 35.4205C279.666 34.7235 279.109 34.1856 278.344 33.8068C277.579 33.4205 276.567 33.2273 275.31 33.2273H270.355V54H267.537ZM278.491 43.5455L284.219 54H280.946L275.31 43.5455H278.491ZM290.824 30.7273V54H288.006V30.7273H290.824ZM297.429 54H294.474L303.02 30.7273H305.929L314.474 54H311.52L304.565 34.4091H304.384L297.429 54ZM298.52 44.9091H310.429V47.4091H298.52V44.9091Z" fill="white"/>
<rect x="322" y="17" width="7" height="51" fill="#17134F"/>
</svg>
