<svg width="196" height="43" viewBox="0 0 196 43" fill="none" xmlns="http://www.w3.org/2000/svg">
<path d="M51.89 37.1C51.0433 37.1 50.38 36.8633 49.9 36.39C49.42 35.9167 49.18 35.2567 49.18 34.41C49.18 33.89 49.24 33.3967 49.36 32.93C49.48 32.4633 49.65 32.0367 49.87 31.65C50.0966 31.2633 50.3666 30.93 50.68 30.65C51 30.3633 51.3566 30.1433 51.75 29.99C52.1433 29.8367 52.57 29.76 53.03 29.76C53.4633 29.76 53.8433 29.7967 54.17 29.87C54.4966 29.9433 54.8066 30.0467 55.1 30.18L54.76 30.96C54.5133 30.8467 54.2466 30.75 53.96 30.67C53.6733 30.59 53.36 30.55 53.02 30.55C52.6066 30.55 52.2233 30.6433 51.87 30.83C51.5233 31.0167 51.2166 31.28 50.95 31.62C50.69 31.96 50.4866 32.3633 50.34 32.83C50.2 33.29 50.13 33.7967 50.13 34.35C50.13 34.7167 50.1933 35.05 50.32 35.35C50.4533 35.6433 50.6566 35.8767 50.93 36.05C51.2033 36.2233 51.5533 36.31 51.98 36.31C52.2333 36.31 52.4633 36.2933 52.67 36.26C52.8833 36.22 53.0633 36.1767 53.21 36.13L53.67 34.02H52.27L52.44 33.24H54.73L53.97 36.73C53.67 36.8367 53.3533 36.9267 53.02 37C52.6866 37.0667 52.31 37.1 51.89 37.1ZM57.6573 37.1C57.244 37.1 56.8906 37.02 56.5973 36.86C56.3106 36.6933 56.0906 36.46 55.9373 36.16C55.7906 35.8533 55.7173 35.4933 55.7173 35.08C55.7173 34.6533 55.7773 34.2333 55.8973 33.82C56.024 33.4 56.204 33.02 56.4373 32.68C56.6706 32.3333 56.9506 32.0567 57.2773 31.85C57.6106 31.6433 57.984 31.54 58.3973 31.54C58.904 31.54 59.284 31.65 59.5373 31.87C59.7973 32.09 59.9273 32.3967 59.9273 32.79C59.9273 33.05 59.8673 33.2967 59.7473 33.53C59.6273 33.7567 59.4406 33.9567 59.1873 34.13C58.934 34.3033 58.6106 34.44 58.2173 34.54C57.824 34.6333 57.3506 34.68 56.7973 34.68H56.6273C56.6206 34.74 56.614 34.8033 56.6073 34.87C56.6073 34.9367 56.6073 34.9967 56.6073 35.05C56.6073 35.4567 56.7073 35.78 56.9073 36.02C57.1073 36.2533 57.4106 36.37 57.8173 36.37C58.0706 36.37 58.3106 36.3333 58.5373 36.26C58.764 36.1867 59.0106 36.0867 59.2773 35.96V36.71C59.024 36.8233 58.774 36.9167 58.5273 36.99C58.2873 37.0633 57.9973 37.1 57.6573 37.1ZM56.8273 33.97C57.2273 33.97 57.5973 33.9367 57.9373 33.87C58.2773 33.7967 58.5506 33.68 58.7573 33.52C58.964 33.3533 59.0673 33.1333 59.0673 32.86C59.0673 32.6867 59.0073 32.5467 58.8873 32.44C58.774 32.3267 58.594 32.27 58.3473 32.27C58.134 32.27 57.924 32.3367 57.7173 32.47C57.5106 32.6033 57.324 32.7967 57.1573 33.05C56.9906 33.3033 56.8573 33.61 56.7573 33.97H56.8273ZM61.7775 37.1C61.4509 37.1 61.1642 37.0667 60.9175 37C60.6775 36.94 60.4642 36.86 60.2775 36.76V35.95C60.4509 36.0567 60.6675 36.1567 60.9275 36.25C61.1942 36.3367 61.4675 36.38 61.7475 36.38C62.0142 36.38 62.2342 36.3467 62.4075 36.28C62.5875 36.2067 62.7242 36.1067 62.8175 35.98C62.9109 35.8533 62.9575 35.7067 62.9575 35.54C62.9575 35.4067 62.9309 35.2933 62.8775 35.2C62.8242 35.1 62.7309 35.0033 62.5975 34.91C62.4709 34.81 62.2909 34.6967 62.0575 34.57C61.8042 34.4233 61.5909 34.28 61.4175 34.14C61.2509 33.9933 61.1242 33.8333 61.0375 33.66C60.9509 33.4867 60.9075 33.2867 60.9075 33.06C60.9075 32.7533 60.9809 32.4867 61.1275 32.26C61.2809 32.0333 61.4942 31.8567 61.7675 31.73C62.0409 31.6033 62.3609 31.54 62.7275 31.54C63.0542 31.54 63.3542 31.58 63.6275 31.66C63.9075 31.7333 64.1475 31.8167 64.3475 31.91L64.0675 32.61C63.8942 32.53 63.7009 32.4567 63.4875 32.39C63.2742 32.3167 63.0209 32.28 62.7275 32.28C62.4409 32.28 62.2109 32.35 62.0375 32.49C61.8709 32.6233 61.7875 32.7967 61.7875 33.01C61.7875 33.1233 61.8109 33.2267 61.8575 33.32C61.9042 33.4133 61.9909 33.51 62.1175 33.61C62.2509 33.7033 62.4342 33.8167 62.6675 33.95C62.8942 34.0833 63.0975 34.2167 63.2775 34.35C63.4575 34.4833 63.5975 34.6367 63.6975 34.81C63.8042 34.9833 63.8575 35.1967 63.8575 35.45C63.8575 35.81 63.7709 36.1133 63.5975 36.36C63.4309 36.6067 63.1909 36.7933 62.8775 36.92C62.5642 37.04 62.1975 37.1 61.7775 37.1ZM66.3939 37.1C66.0339 37.1 65.7306 37.0133 65.4839 36.84C65.2373 36.6667 65.1139 36.3633 65.1139 35.93C65.1139 35.83 65.1206 35.72 65.1339 35.6C65.1539 35.4733 65.1773 35.3467 65.2039 35.22L65.8139 32.31H64.9839L65.0639 31.91L65.9639 31.53L66.5839 30.42H67.1039L66.8339 31.64H68.1839L68.0439 32.31H66.7039L66.0839 35.23C66.0639 35.3167 66.0439 35.4167 66.0239 35.53C66.0039 35.6367 65.9939 35.7367 65.9939 35.83C65.9939 35.9833 66.0339 36.1133 66.1139 36.22C66.2006 36.3267 66.3373 36.38 66.5239 36.38C66.6439 36.38 66.7606 36.37 66.8739 36.35C66.9873 36.3233 67.1073 36.29 67.2339 36.25V36.92C67.1539 36.96 67.0306 37 66.8639 37.04C66.6973 37.08 66.5406 37.1 66.3939 37.1ZM69.7943 37.1C69.5076 37.1 69.2543 37.0333 69.0343 36.9C68.8209 36.76 68.6509 36.5533 68.5243 36.28C68.4043 36.0067 68.3443 35.67 68.3443 35.27C68.3443 34.87 68.3843 34.4867 68.4643 34.12C68.5509 33.7467 68.6709 33.4033 68.8243 33.09C68.9776 32.7767 69.1609 32.5067 69.3743 32.28C69.5943 32.0467 69.8376 31.8667 70.1043 31.74C70.3776 31.6067 70.6676 31.54 70.9743 31.54C71.2076 31.54 71.4109 31.5833 71.5843 31.67C71.7643 31.7567 71.9143 31.87 72.0343 32.01C72.1543 32.15 72.2509 32.3033 72.3243 32.47H72.3743L72.6943 31.64H73.3643L72.2243 37H71.5243L71.6543 36.01H71.6143C71.4609 36.2033 71.2909 36.3833 71.1043 36.55C70.9176 36.7167 70.7143 36.85 70.4943 36.95C70.2809 37.05 70.0476 37.1 69.7943 37.1ZM70.0843 36.37C70.3309 36.37 70.5709 36.28 70.8043 36.1C71.0443 35.92 71.2609 35.6767 71.4543 35.37C71.6476 35.0633 71.7943 34.72 71.8943 34.34C71.9476 34.1467 71.9809 33.97 71.9943 33.81C72.0143 33.6433 72.0243 33.49 72.0243 33.35C72.0243 33.0367 71.9376 32.78 71.7643 32.58C71.5909 32.38 71.3576 32.28 71.0643 32.28C70.8576 32.28 70.6609 32.3333 70.4743 32.44C70.2943 32.5467 70.1276 32.6967 69.9743 32.89C69.8209 33.0767 69.6909 33.2967 69.5843 33.55C69.4776 33.8033 69.3943 34.08 69.3343 34.38C69.2743 34.6733 69.2443 34.9767 69.2443 35.29C69.2443 35.65 69.3176 35.92 69.4643 36.1C69.6109 36.28 69.8176 36.37 70.0843 36.37ZM69.7243 30.94C69.7843 30.66 69.8676 30.4267 69.9743 30.24C70.0809 30.0467 70.2076 29.9033 70.3543 29.81C70.5076 29.71 70.6809 29.66 70.8743 29.66C71.0209 29.66 71.1576 29.69 71.2843 29.75C71.4109 29.8033 71.5309 29.8667 71.6443 29.94C71.7643 30.0067 71.8743 30.07 71.9743 30.13C72.0743 30.1833 72.1676 30.21 72.2543 30.21C72.4009 30.21 72.5143 30.1667 72.5943 30.08C72.6743 29.9933 72.7543 29.85 72.8343 29.65H73.3643C73.2909 29.9233 73.1976 30.1567 73.0843 30.35C72.9776 30.5433 72.8509 30.69 72.7043 30.79C72.5576 30.8833 72.3876 30.93 72.1943 30.93C72.0609 30.93 71.9343 30.9033 71.8143 30.85C71.6943 30.79 71.5776 30.7267 71.4643 30.66C71.3509 30.5867 71.2376 30.5233 71.1243 30.47C71.0176 30.41 70.9109 30.38 70.8043 30.38C70.6643 30.38 70.5543 30.4267 70.4743 30.52C70.3943 30.6133 70.3176 30.7533 70.2443 30.94H69.7243ZM76.0279 37.08C75.6145 37.08 75.2579 36.9967 74.9579 36.83C74.6579 36.6633 74.4279 36.4267 74.2679 36.12C74.1079 35.8067 74.0279 35.44 74.0279 35.02C74.0279 34.6933 74.0645 34.3667 74.1379 34.04C74.2112 33.7067 74.3179 33.3933 74.4579 33.1C74.6045 32.8067 74.7845 32.5467 74.9979 32.32C75.2112 32.0867 75.4612 31.9033 75.7479 31.77C76.0345 31.6367 76.3545 31.57 76.7079 31.57C77.1279 31.57 77.4845 31.6533 77.7779 31.82C78.0779 31.9867 78.3079 32.2267 78.4679 32.54C78.6279 32.8467 78.7079 33.2133 78.7079 33.64C78.7079 33.9667 78.6712 34.2933 78.5979 34.62C78.5245 34.9467 78.4145 35.26 78.2679 35.56C78.1279 35.8533 77.9512 36.1133 77.7379 36.34C77.5245 36.5667 77.2745 36.7467 76.9879 36.88C76.7012 37.0133 76.3812 37.08 76.0279 37.08ZM76.0779 36.35C76.2712 36.35 76.4512 36.31 76.6179 36.23C76.7912 36.15 76.9512 36.0333 77.0979 35.88C77.2445 35.72 77.3679 35.5267 77.4679 35.3C77.5745 35.0667 77.6579 34.8033 77.7179 34.51C77.7779 34.2167 77.8079 33.8933 77.8079 33.54C77.8079 33.34 77.7712 33.1467 77.6979 32.96C77.6312 32.7667 77.5179 32.61 77.3579 32.49C77.1979 32.3633 76.9845 32.3 76.7179 32.3C76.4979 32.3 76.2945 32.3467 76.1079 32.44C75.9212 32.5333 75.7545 32.6667 75.6079 32.84C75.4612 33.0067 75.3345 33.2067 75.2279 33.44C75.1279 33.6667 75.0512 33.9167 74.9979 34.19C74.9445 34.4633 74.9179 34.75 74.9179 35.05C74.9179 35.4633 75.0179 35.7833 75.2179 36.01C75.4245 36.2367 75.7112 36.35 76.0779 36.35ZM82.3758 37L83.8858 29.86H85.4558C86.1892 29.86 86.7392 30.0133 87.1058 30.32C87.4725 30.6267 87.6558 31.0767 87.6558 31.67C87.6558 32.01 87.5958 32.3233 87.4758 32.61C87.3625 32.8967 87.1758 33.1467 86.9158 33.36C86.6558 33.5667 86.3092 33.73 85.8758 33.85L87.0558 37H86.0758L85.0558 34.05H83.8858L83.2658 37H82.3758ZM84.8258 33.29C85.1592 33.29 85.4458 33.2533 85.6858 33.18C85.9258 33.1 86.1225 32.9933 86.2758 32.86C86.4358 32.72 86.5525 32.5533 86.6258 32.36C86.6992 32.1667 86.7358 31.9567 86.7358 31.73C86.7358 31.3233 86.6225 31.04 86.3958 30.88C86.1692 30.72 85.8292 30.64 85.3758 30.64H84.6158L84.0458 33.29H84.8258ZM89.5882 37.1C89.3216 37.1 89.0849 37.05 88.8782 36.95C88.6782 36.85 88.5216 36.7 88.4082 36.5C88.3016 36.3 88.2482 36.0567 88.2482 35.77C88.2482 35.6167 88.2582 35.4733 88.2782 35.34C88.3049 35.2 88.3316 35.0567 88.3582 34.91L89.0582 31.64H89.9482L89.2282 35.01C89.2016 35.1567 89.1782 35.2833 89.1582 35.39C89.1449 35.4967 89.1382 35.5933 89.1382 35.68C89.1382 35.8933 89.1916 36.0633 89.2982 36.19C89.4116 36.31 89.5916 36.37 89.8382 36.37C90.0649 36.37 90.3082 36.29 90.5682 36.13C90.8349 35.97 91.0816 35.7133 91.3082 35.36C91.5349 35.0067 91.7116 34.5367 91.8382 33.95L92.3282 31.64H93.1982L92.0582 37H91.3382L91.4482 36.01H91.3982C91.2716 36.17 91.1216 36.3367 90.9482 36.51C90.7816 36.6767 90.5849 36.8167 90.3582 36.93C90.1382 37.0433 89.8816 37.1 89.5882 37.1ZM93.7693 37L94.9093 31.64H95.6293L95.5193 32.63H95.5693C95.7093 32.4433 95.8559 32.27 96.0093 32.11C96.1626 31.9433 96.3359 31.8067 96.5293 31.7C96.7226 31.5933 96.9459 31.54 97.1993 31.54C97.2926 31.54 97.3893 31.5467 97.4893 31.56C97.5959 31.5667 97.6926 31.5833 97.7793 31.61L97.5893 32.4C97.5026 32.38 97.4159 32.3667 97.3293 32.36C97.2493 32.3467 97.1659 32.34 97.0793 32.34C96.8326 32.34 96.6026 32.4067 96.3893 32.54C96.1826 32.6667 95.9959 32.8367 95.8293 33.05C95.6693 33.2633 95.5326 33.5 95.4193 33.76C95.3059 34.02 95.2226 34.2833 95.1693 34.55L94.6493 37H93.7693ZM99.2083 37.1C98.9217 37.1 98.6683 37.0333 98.4483 36.9C98.235 36.76 98.065 36.5533 97.9383 36.28C97.8183 36.0067 97.7583 35.67 97.7583 35.27C97.7583 34.87 97.7983 34.4867 97.8783 34.12C97.965 33.7467 98.085 33.4033 98.2383 33.09C98.3917 32.7767 98.575 32.5067 98.7883 32.28C99.0083 32.0467 99.2517 31.8667 99.5183 31.74C99.7917 31.6067 100.082 31.54 100.388 31.54C100.622 31.54 100.825 31.5833 100.998 31.67C101.178 31.7567 101.328 31.87 101.448 32.01C101.568 32.15 101.665 32.3033 101.738 32.47H101.788L102.108 31.64H102.778L101.638 37H100.938L101.068 36.01H101.028C100.875 36.2033 100.705 36.3833 100.518 36.55C100.332 36.7167 100.128 36.85 99.9083 36.95C99.695 37.05 99.4617 37.1 99.2083 37.1ZM99.4983 36.37C99.745 36.37 99.985 36.28 100.218 36.1C100.458 35.92 100.675 35.6767 100.868 35.37C101.062 35.0633 101.208 34.72 101.308 34.34C101.362 34.1467 101.395 33.97 101.408 33.81C101.428 33.6433 101.438 33.49 101.438 33.35C101.438 33.0367 101.352 32.78 101.178 32.58C101.005 32.38 100.772 32.28 100.478 32.28C100.272 32.28 100.075 32.3333 99.8883 32.44C99.7083 32.5467 99.5417 32.6967 99.3883 32.89C99.235 33.0767 99.105 33.2967 98.9983 33.55C98.8917 33.8033 98.8083 34.08 98.7483 34.38C98.6883 34.6733 98.6583 34.9767 98.6583 35.29C98.6583 35.65 98.7317 35.92 98.8783 36.1C99.025 36.28 99.2317 36.37 99.4983 36.37ZM103.232 37L104.852 29.4H105.732L104.112 37H103.232Z" fill="black"/>
<path d="M17.3531 0.176161L0 10.1708V30.3621L4.82661 27.5789V15.7523L15.0876 21.6622L17.3531 20.3558V17.4073L7.22081 11.5716L17.3531 5.73585V0.176161Z" fill="#E8992B"/>
<path d="M20.341 5.55969V0L38 10.1708V30.5384L33.1734 27.7553V15.7306L22.7406 21.7394L20.341 20.3558V17.5397L30.7412 11.5497L20.341 5.55969Z" fill="#E8992B"/>
<path d="M21.4136 24.417L18.8471 22.9371L16.587 24.2403V36.0505L6.34021 30.1489L1.51652 32.9303L19 43L36.3305 33.0185L31.5068 30.237L21.4136 36.0502V24.417Z" fill="#E8992B"/>
<path d="M48.576 24L55.488 7.2H57.408L64.272 24H61.296L55.92 10.392H56.928L51.504 24H48.576ZM51.984 20.76V18.36H60.888V20.76H51.984ZM75.4643 24.24C74.3123 24.24 73.2243 24.016 72.2002 23.568C71.1762 23.12 70.2802 22.504 69.5122 21.72C68.7442 20.92 68.1362 20 67.6882 18.96C67.2562 17.904 67.0402 16.776 67.0402 15.576C67.0402 14.376 67.2562 13.256 67.6882 12.216C68.1362 11.176 68.7442 10.264 69.5122 9.48C70.2962 8.68 71.2082 8.064 72.2483 7.632C73.3042 7.184 74.4402 6.96 75.6562 6.96C76.9842 6.96 78.2162 7.216 79.3523 7.728C80.4882 8.24 81.4402 8.968 82.2083 9.912L80.3363 11.784C79.8403 11.08 79.1762 10.544 78.3443 10.176C77.5122 9.792 76.6162 9.6 75.6562 9.6C74.5042 9.6 73.4882 9.856 72.6082 10.368C71.7442 10.864 71.0722 11.56 70.5922 12.456C70.1122 13.352 69.8722 14.392 69.8722 15.576C69.8722 16.76 70.1122 17.808 70.5922 18.72C71.0882 19.616 71.7522 20.32 72.5842 20.832C73.4162 21.344 74.3602 21.6 75.4162 21.6C76.5362 21.6 77.4963 21.4 78.2963 21C79.1123 20.584 79.7363 19.976 80.1682 19.176C80.6002 18.36 80.8162 17.36 80.8162 16.176L82.5443 17.424H75.3682V14.904H83.6723V15.288C83.6723 17.288 83.3123 18.952 82.5922 20.28C81.8883 21.608 80.9203 22.6 79.6883 23.256C78.4563 23.912 77.0483 24.24 75.4643 24.24ZM90.7153 16.872V14.592H94.9633C95.8113 14.592 96.4673 14.376 96.9313 13.944C97.4113 13.496 97.6513 12.88 97.6513 12.096C97.6513 11.392 97.4193 10.8 96.9553 10.32C96.4913 9.84 95.8353 9.6 94.9873 9.6H90.7153V7.2H95.1073C96.1633 7.2 97.0913 7.416 97.8913 7.848C98.6913 8.264 99.3073 8.84 99.7393 9.576C100.187 10.296 100.411 11.12 100.411 12.048C100.411 13.024 100.187 13.872 99.7393 14.592C99.3073 15.312 98.6913 15.872 97.8913 16.272C97.0913 16.672 96.1633 16.872 95.1073 16.872H90.7153ZM88.8193 24V7.2H91.5793V24H88.8193ZM98.0353 24L92.1553 16.704L94.7233 15.768L101.515 24H98.0353ZM113.479 24.24C112.279 24.24 111.159 24.016 110.119 23.568C109.079 23.12 108.167 22.504 107.383 21.72C106.599 20.92 105.983 20 105.535 18.96C105.103 17.904 104.887 16.776 104.887 15.576C104.887 14.376 105.103 13.256 105.535 12.216C105.983 11.176 106.591 10.264 107.359 9.48C108.143 8.68 109.047 8.064 110.071 7.632C111.111 7.184 112.231 6.96 113.431 6.96C114.631 6.96 115.743 7.184 116.767 7.632C117.807 8.064 118.719 8.68 119.503 9.48C120.287 10.264 120.895 11.184 121.327 12.24C121.775 13.28 121.999 14.4 121.999 15.6C121.999 16.8 121.775 17.928 121.327 18.984C120.895 20.024 120.287 20.936 119.503 21.72C118.735 22.504 117.831 23.12 116.791 23.568C115.767 24.016 114.663 24.24 113.479 24.24ZM113.431 21.6C114.567 21.6 115.559 21.344 116.407 20.832C117.271 20.32 117.943 19.616 118.423 18.72C118.919 17.808 119.167 16.76 119.167 15.576C119.167 14.696 119.023 13.896 118.735 13.176C118.463 12.44 118.071 11.808 117.559 11.28C117.047 10.736 116.439 10.32 115.735 10.032C115.047 9.744 114.279 9.6 113.431 9.6C112.311 9.6 111.319 9.856 110.455 10.368C109.607 10.864 108.935 11.56 108.439 12.456C107.959 13.352 107.719 14.392 107.719 15.576C107.719 16.456 107.855 17.272 108.127 18.024C108.415 18.76 108.807 19.392 109.303 19.92C109.815 20.448 110.423 20.864 111.127 21.168C111.831 21.456 112.599 21.6 113.431 21.6Z" fill="black"/>
<path d="M127.493 24V7.488H129.245V24H127.493ZM128.645 16.536V14.928H137.501V16.536H128.645ZM128.645 9.096V7.488H137.909V9.096H128.645ZM140.763 24L147.531 7.488H148.851L155.547 24H153.651L147.819 9.408H148.515L142.635 24H140.763ZM143.859 19.704V18.144H152.499V19.704H143.859ZM161.898 16.608V15.12H166.698C167.786 15.12 168.618 14.848 169.194 14.304C169.77 13.744 170.058 13 170.058 12.072C170.058 11.176 169.77 10.448 169.194 9.888C168.618 9.312 167.786 9.024 166.698 9.024H161.898V7.488H166.698C167.77 7.488 168.69 7.688 169.458 8.088C170.226 8.472 170.81 9.008 171.21 9.696C171.626 10.384 171.834 11.168 171.834 12.048C171.834 12.96 171.626 13.76 171.21 14.448C170.81 15.136 170.226 15.672 169.458 16.056C168.69 16.424 167.77 16.608 166.698 16.608H161.898ZM160.77 24V7.488H162.522V24H160.77ZM170.754 24L164.562 16.368L166.266 15.816L173.01 24H170.754ZM178.029 24V7.488H179.277L186.405 19.176H185.517L192.645 7.488H193.893V24H192.117V10.56L192.525 10.656L186.573 20.424H185.325L179.373 10.656L179.781 10.56V24H178.029Z" fill="#E8992B"/>
</svg>
